<svg width="612.5775634765624px" height="122.021240234375px" xmlns="http://www.w3.org/2000/svg" viewBox="-56.288781738281216 13.9893798828125 612.5775634765624 122.021240234375" style="background: rgba(0, 0, 0, 0);" preserveAspectRatio="xMidYMid"><defs><filter id="editing-extrude-glow"><feFlood flood-color="#333333" result="flood-1"></feFlood><feMorphology operator="erode" radius="1" in="SourceAlpha" result="erode"></feMorphology><feComposite operator="in" in="flood-1" in2="erode" result="comp1"></feComposite><feConvolveMatrix order="3,3" divisor="1" in="comp1" result="convolve" kernelMatrix="0 0 0 1 1 1 0 0 0"></feConvolveMatrix><feOffset dx="-3" dy="0" in="convolve" result="extrude"></feOffset><feComposite operator="in" in="flood-1" in2="extrude" result="comp-extrude"></feComposite><feFlood flood-color="#000000" result="flood-2"></feFlood><feComposite operator="in" in="flood-2" in2="SourceAlpha" result="comp2"></feComposite><feMorphology operator="dilate" radius="1" in="comp2" result="dilate"></feMorphology><feOffset dx="-4.5" dy="0" in="dilate" result="offset"></feOffset><feGaussianBlur in="offset" stdDeviation="5.8" result="blur"></feGaussianBlur><feComponentTransfer in="blur" result="shadow"><feFuncA type="linear" slope="0.8" intercept="-0.2"></feFuncA></feComponentTransfer><feMerge><feMergeNode in="shadow"></feMergeNode><feMergeNode in="comp-extrude"></feMergeNode><feMergeNode in="SourceGraphic"></feMergeNode></feMerge></filter></defs><g filter="url(#editing-extrude-glow)"><g transform="translate(33.90500855445862, 104.78218841552734)"><path d="M14.21 0L0.51 0L8.32-42.05L8.32-42.05Q14.66-42.75 23.90-42.75L23.90-42.75L23.90-42.75Q33.15-42.75 37.44-40.06L37.44-40.06L37.44-40.06Q41.73-37.38 41.73-31.97L41.73-31.97L41.73-31.97Q41.73-26.56 38.94-23.17L38.94-23.17L38.94-23.17Q36.16-19.78 31.36-18.69L31.36-18.69L31.36-18.69Q32.45-13.38 34.94-9.09L34.94-9.09L34.94-9.09Q37.25-5.06 39.94-3.78L39.94-3.78L39.94-3.78Q38.98-1.09 37.02 0.10L37.02 0.10L37.02 0.10Q35.07 1.28 32.29 1.28L32.29 1.28L32.29 1.28Q29.50 1.28 27.33-0.35L27.33-0.35L27.33-0.35Q25.15-1.98 23.42-4.99L23.42-4.99L23.42-4.99Q19.78-11.52 19.39-21.82L19.39-21.82L19.84-21.82L19.84-21.82Q24.58-21.95 26.94-24.42L26.94-24.42L26.94-24.42Q29.31-26.88 29.31-32.06L29.31-32.06L29.31-32.06Q29.31-38.53 23.87-38.78L23.87-38.78L22.46-38.78L22.46-38.78Q21.89-38.78 21.57-38.72L21.57-38.72L14.21 0ZM58.62 1.28L58.62 1.28L58.62 1.28Q44.54 1.28 44.54-11.97L44.54-11.97L44.54-11.97Q44.54-21.38 49.73-27.46L49.73-27.46L49.73-27.46Q55.23-33.92 64.77-33.92L64.77-33.92L64.77-33.92Q71.68-33.92 75.20-30.72L75.20-30.72L75.20-30.72Q78.72-27.52 78.72-20.80L78.72-20.80L78.72-20.80Q78.72-10.56 73.22-4.61L73.22-4.61L73.22-4.61Q67.84 1.28 58.62 1.28ZM60.29-26.56L60.29-26.56L60.29-26.56Q59.52-24.83 58.91-22.24L58.91-22.24L58.91-22.24Q58.30-19.65 57.54-15.55L57.54-15.55L57.54-15.55Q56.77-11.46 56.77-6.40L56.77-6.40L56.77-6.40Q56.77-4.74 57.31-3.65L57.31-3.65L57.31-3.65Q57.86-2.56 59.33-2.56L59.33-2.56L59.33-2.56Q60.80-2.56 61.73-3.26L61.73-3.26L61.73-3.26Q62.66-3.97 63.36-5.63L63.36-5.63L63.36-5.63Q64.64-8.58 65.66-14.05L65.66-14.05L65.66-14.05Q66.69-19.52 66.78-21.89L66.78-21.89L66.78-21.89Q66.88-24.26 66.88-26.02L66.88-26.02L66.88-26.02Q66.88-27.78 66.37-28.93L66.37-28.93L66.37-28.93Q65.86-30.08 64.42-30.08L64.42-30.08L64.42-30.08Q62.98-30.08 62.02-29.18L62.02-29.18L62.02-29.18Q61.06-28.29 60.29-26.56ZM101.63-22.46L101.63-22.46L101.63-22.46Q102.53-24.83 102.53-26.88L102.53-26.88L102.53-26.88Q102.53-30.66 99.46-30.66L99.46-30.66L99.46-30.66Q97.86-30.66 96.54-29.22L96.54-29.22L96.54-29.22Q95.23-27.78 95.23-25.98L95.23-25.98L95.23-25.98Q95.23-24.70 96.26-23.68L96.26-23.68L96.26-23.68Q97.73-22.27 101.50-19.97L101.50-19.97L101.50-19.97Q105.28-17.66 106.72-15.78L106.72-15.78L106.72-15.78Q108.16-13.89 108.16-11.30L108.16-11.30L108.16-11.30Q108.16-8.70 106.91-6.34L106.91-6.34L106.91-6.34Q105.66-3.97 103.42-2.30L103.42-2.30L103.42-2.30Q98.62 1.28 90.94 1.28L90.94 1.28L90.94 1.28Q86.78 1.28 83.58-0.90L83.58-0.90L83.58-0.90Q80.38-3.01 80.38-5.50L80.38-5.50L80.38-5.50Q80.38-8 82.21-9.47L82.21-9.47L82.21-9.47Q84.03-10.94 86.72-10.94L86.72-10.94L86.72-10.94Q89.41-10.94 91.07-9.92L91.07-9.92L91.07-9.92Q90.24-7.81 90.24-6.40L90.24-6.40L90.24-6.40Q90.24-2.18 93.82-2.18L93.82-2.18L93.82-2.18Q95.36-2.18 96.38-3.14L96.38-3.14L96.38-3.14Q97.41-4.10 97.41-5.76L97.41-5.76L97.41-5.76Q97.41-9.02 91.90-12.48L91.90-12.48L91.90-12.48Q87.42-15.42 86.40-16.58L86.40-16.58L86.40-16.58Q84.67-18.62 84.67-21.18L84.67-21.18L84.67-21.18Q84.67-23.74 85.89-26.18L85.89-26.18L85.89-26.18Q87.10-28.61 89.34-30.34L89.34-30.34L89.34-30.34Q94.02-33.92 102.14-33.92L102.14-33.92L102.14-33.92Q106.30-33.92 108.77-32.26L108.77-32.26L108.77-32.26Q111.23-30.59 111.23-27.78L111.23-27.78L111.23-27.78Q111.23-24.96 109.54-23.36L109.54-23.36L109.54-23.36Q107.84-21.76 104.77-21.76L104.77-21.76L104.77-21.76Q102.66-21.76 101.63-22.46ZM139.52-10.82L139.52-10.82L139.52-10.82Q141.12-9.73 141.12-7.33L141.12-7.33L141.12-7.33Q141.12-4.93 139.90-3.39L139.90-3.39L139.90-3.39Q138.69-1.86 136.70-0.83L136.70-0.83L136.70-0.83Q132.61 1.28 128.19 1.28L128.19 1.28L128.19 1.28Q123.78 1.28 121.18 0.32L121.18 0.32L121.18 0.32Q118.59-0.64 116.86-2.43L116.86-2.43L116.86-2.43Q113.47-5.82 113.47-12.03L113.47-12.03L113.47-12.03Q113.47-21.70 118.72-27.58L118.72-27.58L118.72-27.58Q124.35-33.92 134.14-33.92L134.14-33.92L134.14-33.92Q140.22-33.92 143.23-31.36L143.23-31.36L143.23-31.36Q145.47-29.44 145.47-26.30L145.47-26.30L145.47-26.30Q145.47-15.04 126.02-15.04L126.02-15.04L126.02-15.04Q125.76-13.38 125.76-11.97L125.76-11.97L125.76-11.97Q125.76-9.02 127.07-7.90L127.07-7.90L127.07-7.90Q128.38-6.78 130.82-6.78L130.82-6.78L130.82-6.78Q133.25-6.78 135.84-7.90L135.84-7.90L135.84-7.90Q138.43-9.02 139.52-10.82ZM126.46-17.79L126.46-17.79L126.46-17.79Q131.01-17.79 133.63-20.61L133.63-20.61L133.63-20.61Q136.26-23.30 136.26-27.58L136.26-27.58L136.26-27.58Q136.26-29.06 135.71-29.86L135.71-29.86L135.71-29.86Q135.17-30.66 134.08-30.66L134.08-30.66L134.08-30.66Q132.99-30.66 132.06-30.24L132.06-30.24L132.06-30.24Q131.14-29.82 130.18-28.42L130.18-28.42L130.18-28.42Q127.81-25.22 126.46-17.79ZM168-7.23L168-7.23L168-7.23Q164.67-3.78 158.59-3.78L158.59-3.78L158.59-3.78Q150.98-3.78 149.38-9.34L149.38-9.34L149.38-9.34Q148.86-11.01 148.86-12.86L148.86-12.86L148.86-12.86Q148.86-14.72 149.25-16.64L149.25-16.64L152.26-32.64L165.25-33.92L161.73-15.30L161.73-15.30Q161.60-14.46 161.41-13.57L161.41-13.57L161.41-13.57Q161.22-12.67 161.22-11.74L161.22-11.74L161.22-11.74Q161.22-10.82 161.54-10.21L161.54-10.21L161.54-10.21Q161.86-9.60 162.30-9.22L162.30-9.22L162.30-9.22Q163.07-8.70 164.45-8.70L164.45-8.70L164.45-8.70Q165.82-8.70 167.01-10.37L167.01-10.37L167.01-10.37Q168.19-12.03 168.77-14.91L168.77-14.91L172.29-32.64L184.90-33.92L180.10-8.77L180.10-8.77Q177.73 3.52 172.86 8.38L172.86 8.38L172.86 8.38Q170.37 10.88 167.14 11.87L167.14 11.87L167.14 11.87Q163.90 12.86 159.74 12.86L159.74 12.86L159.74 12.86Q153.02 12.86 149.18 10.75L149.18 10.75L149.18 10.75Q145.34 8.64 145.34 5.12L145.34 5.12L145.34 5.12Q145.34 2.50 147.33 0.99L147.33 0.99L147.33 0.99Q149.31-0.51 152.38-0.51L152.38-0.51L152.38-0.51Q155.07-0.51 157.12 0.64L157.12 0.64L157.12 0.64Q158.34 1.34 158.91 2.24L158.91 2.24L158.91 2.24Q157.44 3.52 157.44 5.63L157.44 5.63L157.44 5.63Q157.44 8.45 160 8.45L160 8.45L160 8.45Q164.22 8.45 166.66-1.28L166.66-1.28L166.66-1.28Q167.36-4.16 168-7.23ZM197.12-29.50L190.34-29.50L190.34-29.50Q192.70-37.70 192.83-46.34L192.83-46.34L194.69-46.59L194.69-46.59Q195.65-46.72 196.35-46.72L196.35-46.72L196.35-46.72Q199.17-46.72 200.70-45.34L200.70-45.34L200.70-45.34Q202.24-43.97 202.24-41.54L202.24-41.54L202.24-41.54Q202.24-38.98 201.09-36.16L201.09-36.16L201.09-36.16Q199.04-31.17 197.12-29.50L197.12-29.50ZM220.61-22.46L220.61-22.46L220.61-22.46Q221.50-24.83 221.50-26.88L221.50-26.88L221.50-26.88Q221.50-30.66 218.43-30.66L218.43-30.66L218.43-30.66Q216.83-30.66 215.52-29.22L215.52-29.22L215.52-29.22Q214.21-27.78 214.21-25.98L214.21-25.98L214.21-25.98Q214.21-24.70 215.23-23.68L215.23-23.68L215.23-23.68Q216.70-22.27 220.48-19.97L220.48-19.97L220.48-19.97Q224.26-17.66 225.70-15.78L225.70-15.78L225.70-15.78Q227.14-13.89 227.14-11.30L227.14-11.30L227.14-11.30Q227.14-8.70 225.89-6.34L225.89-6.34L225.89-6.34Q224.64-3.97 222.40-2.30L222.40-2.30L222.40-2.30Q217.60 1.28 209.92 1.28L209.92 1.28L209.92 1.28Q205.76 1.28 202.56-0.90L202.56-0.90L202.56-0.90Q199.36-3.01 199.36-5.50L199.36-5.50L199.36-5.50Q199.36-8 201.18-9.47L201.18-9.47L201.18-9.47Q203.01-10.94 205.70-10.94L205.70-10.94L205.70-10.94Q208.38-10.94 210.05-9.92L210.05-9.92L210.05-9.92Q209.22-7.81 209.22-6.40L209.22-6.40L209.22-6.40Q209.22-2.18 212.80-2.18L212.80-2.18L212.80-2.18Q214.34-2.18 215.36-3.14L215.36-3.14L215.36-3.14Q216.38-4.10 216.38-5.76L216.38-5.76L216.38-5.76Q216.38-9.02 210.88-12.48L210.88-12.48L210.88-12.48Q206.40-15.42 205.38-16.58L205.38-16.58L205.38-16.58Q203.65-18.62 203.65-21.18L203.65-21.18L203.65-21.18Q203.65-23.74 204.86-26.18L204.86-26.18L204.86-26.18Q206.08-28.61 208.32-30.34L208.32-30.34L208.32-30.34Q212.99-33.92 221.12-33.92L221.12-33.92L221.12-33.92Q225.28-33.92 227.74-32.26L227.74-32.26L227.74-32.26Q230.21-30.59 230.21-27.78L230.21-27.78L230.21-27.78Q230.21-24.96 228.51-23.36L228.51-23.36L228.51-23.36Q226.82-21.76 223.74-21.76L223.74-21.76L223.74-21.76Q221.63-21.76 220.61-22.46ZM277.95-7.10L277.95-7.10L277.95-7.10Q277.95-4.29 280.83-3.46L280.83-3.46L280.83-3.46Q280.13-1.09 277.38 0.19L277.38 0.19L277.38 0.19Q275.07 1.28 272.54 1.28L272.54 1.28L272.54 1.28Q270.02 1.28 268.70 0.61L268.70 0.61L268.70 0.61Q267.39-0.06 266.69-1.15L266.69-1.15L266.69-1.15Q265.54-2.82 265.54-5.95L265.54-5.95L265.54-5.95Q265.54-7.81 266.56-12.93L266.56-12.93L267.46-17.79L267.46-17.79Q268.54-23.36 268.54-25.41L268.54-25.41L268.54-25.41Q268.54-28.99 266.56-28.99L266.56-28.99L266.56-28.99Q264.06-28.99 262.46-25.34L262.46-25.34L262.46-25.34Q261.82-23.94 261.38-21.82L261.38-21.82L257.02 0L244.16 1.28L253.18-44.80L266.05-46.08L265.54-43.52L265.54-43.52Q263.74-33.66 262.21-30.34L262.21-30.34L262.21-30.34Q265.79-33.92 272.38-33.92L272.38-33.92L272.38-33.92Q279.36-33.92 280.64-29.31L280.64-29.31L280.64-29.31Q281.09-27.84 281.09-26.56L281.09-26.56L281.09-26.56Q281.09-25.28 280.99-24.29L280.99-24.29L280.99-24.29Q280.90-23.30 280.58-21.50L280.58-21.50L279.74-16.90L278.27-9.66L278.27-9.66Q277.95-8.19 277.95-7.10ZM288.80-1.92L288.80-1.92L288.80-1.92Q287.30-3.58 286.62-6.21L286.62-6.21L286.62-6.21Q285.95-8.83 285.95-13.12L285.95-13.12L285.95-13.12Q285.95-17.41 287.42-21.31L287.42-21.31L287.42-21.31Q288.90-25.22 291.58-28.03L291.58-28.03L291.58-28.03Q297.09-33.92 306.18-33.92L306.18-33.92L306.18-33.92Q309.44-33.92 311.81-32.83L311.81-32.83L322.75-33.92L318.02-8.96L318.02-8.96Q317.82-8.19 317.82-6.78L317.82-6.78L317.82-6.78Q317.82-5.38 318.69-4.48L318.69-4.48L318.69-4.48Q319.55-3.58 320.83-3.46L320.83-3.46L320.83-3.46Q320.19-1.28 317.86 0L317.86 0L317.86 0Q315.52 1.28 312.90 1.28L312.90 1.28L312.90 1.28Q310.27 1.28 308.51 0.29L308.51 0.29L308.51 0.29Q306.75-0.70 306.24-2.37L306.24-2.37L306.24-2.37Q305.22-0.77 303.04 0.26L303.04 0.26L303.04 0.26Q300.86 1.28 297.95 1.28L297.95 1.28L297.95 1.28Q295.04 1.28 292.67 0.51L292.67 0.51L292.67 0.51Q290.30-0.26 288.80-1.92ZM302.30-27.90L302.30-27.90L302.30-27.90Q301.57-26.75 300.93-24.80L300.93-24.80L300.93-24.80Q300.29-22.85 299.23-17.63L299.23-17.63L299.23-17.63Q298.18-12.42 298.18-8.70L298.18-8.70L298.18-8.70Q298.18-4.99 298.75-3.90L298.75-3.90L298.75-3.90Q299.33-2.82 300.35-2.82L300.35-2.82L300.35-2.82Q302.40-2.82 303.90-4.77L303.90-4.77L303.90-4.77Q305.41-6.72 305.98-10.18L305.98-10.18L309.38-28.93L309.38-28.93Q308.03-30.08 306.46-30.08L306.46-30.08L306.46-30.08Q304.90-30.08 303.97-29.57L303.97-29.57L303.97-29.57Q303.04-29.06 302.30-27.90ZM349.44-31.55L349.44-31.55L349.44-31.55Q351.55-33.92 355.20-33.92L355.20-33.92L355.20-33.92Q357.44-33.92 359.17-32.70L359.17-32.70L359.17-32.70Q360.90-31.49 360.90-29.22L360.90-29.22L360.90-29.22Q360.90-26.94 360.19-24.51L360.19-24.51L360.19-24.51Q359.49-22.08 358.40-19.58L358.40-19.58L358.40-19.58Q356.22-14.72 353.22-10.69L353.22-10.69L353.22-10.69Q348.99-4.86 344.93-1.79L344.93-1.79L344.93-1.79Q340.86 1.28 336.45 1.28L336.45 1.28L336.45 1.28Q332.86 1.28 330.69 0.45L330.69 0.45L330.69 0.45Q330.30-12.99 329.82-17.79L329.82-17.79L329.82-17.79Q329.34-22.59 328.96-25.22L328.96-25.22L328.96-25.22Q328.32-30.34 326.40-31.55L326.40-31.55L326.40-31.55Q327.87-32.83 329.31-33.38L329.31-33.38L329.31-33.38Q330.75-33.92 333.73-33.92L333.73-33.92L333.73-33.92Q336.70-33.92 338.82-31.58L338.82-31.58L338.82-31.58Q340.93-29.25 341.34-25.12L341.34-25.12L341.34-25.12Q341.76-20.99 341.76-16L341.76-16L341.76-16Q341.76-11.01 341.38-4.99L341.38-4.99L341.38-4.99Q343.36-6.40 345.47-10.69L345.47-10.69L345.47-10.69Q348.35-16.64 349.38-23.81L349.38-23.81L349.38-23.81Q349.70-25.98 349.70-28.29L349.70-28.29L349.70-28.29Q349.70-30.59 349.44-31.55ZM388.54-10.82L388.54-10.82L388.54-10.82Q390.14-9.73 390.14-7.33L390.14-7.33L390.14-7.33Q390.14-4.93 388.93-3.39L388.93-3.39L388.93-3.39Q387.71-1.86 385.73-0.83L385.73-0.83L385.73-0.83Q381.63 1.28 377.22 1.28L377.22 1.28L377.22 1.28Q372.80 1.28 370.21 0.32L370.21 0.32L370.21 0.32Q367.62-0.64 365.89-2.43L365.89-2.43L365.89-2.43Q362.50-5.82 362.50-12.03L362.50-12.03L362.50-12.03Q362.50-21.70 367.74-27.58L367.74-27.58L367.74-27.58Q373.38-33.92 383.17-33.92L383.17-33.92L383.17-33.92Q389.25-33.92 392.26-31.36L392.26-31.36L392.26-31.36Q394.50-29.44 394.50-26.30L394.50-26.30L394.50-26.30Q394.50-15.04 375.04-15.04L375.04-15.04L375.04-15.04Q374.78-13.38 374.78-11.97L374.78-11.97L374.78-11.97Q374.78-9.02 376.10-7.90L376.10-7.90L376.10-7.90Q377.41-6.78 379.84-6.78L379.84-6.78L379.84-6.78Q382.27-6.78 384.86-7.90L384.86-7.90L384.86-7.90Q387.46-9.02 388.54-10.82ZM375.49-17.79L375.49-17.79L375.49-17.79Q380.03-17.79 382.66-20.61L382.66-20.61L382.66-20.61Q385.28-23.30 385.28-27.58L385.28-27.58L385.28-27.58Q385.28-29.06 384.74-29.86L384.74-29.86L384.74-29.86Q384.19-30.66 383.10-30.66L383.10-30.66L383.10-30.66Q382.02-30.66 381.09-30.24L381.09-30.24L381.09-30.24Q380.16-29.82 379.20-28.42L379.20-28.42L379.20-28.42Q376.83-25.22 375.49-17.79ZM423.74 1.28L423.74 1.28L423.74 1.28Q416 1.28 416-4.74L416-4.74L416-4.74Q416.06-6.40 416.58-9.22L416.58-9.22L417.73-15.10L417.73-15.10Q419.46-23.42 419.46-25.28L419.46-25.28L419.46-25.28Q419.46-28.99 417.28-28.99L417.28-28.99L417.28-28.99Q413.63-28.99 411.71-19.46L411.71-19.46L407.94 0L395.07 1.28L401.73-32.70L412.22-33.92L411.20-27.65L411.20-27.65Q414.21-33.92 423.42-33.92L423.42-33.92L423.42-33.92Q427.90-33.92 429.79-32.03L429.79-32.03L429.79-32.03Q431.68-30.14 431.68-25.92L431.68-25.92L431.68-25.92Q431.68-21.95 429.63-12.67L429.63-12.67L429.63-12.67Q428.67-8.51 428.67-6.94L428.67-6.94L428.67-6.94Q428.67-5.38 429.54-4.48L429.54-4.48L429.54-4.48Q430.40-3.58 431.68-3.46L431.68-3.46L431.68-3.46Q431.04-1.28 428.83 0L428.83 0L428.83 0Q426.62 1.28 423.74 1.28Z" fill="#eb6c6c"></path></g></g><style>text {
  font-size: 64px;
  font-family: Arial Black;
  dominant-baseline: central;
  text-anchor: middle;
}</style></svg>